<svg xmlns="http://www.w3.org/2000/svg" viewBox="0 0 24 24" width="24" height="24">
  <path fill="white" d="M12,0C5.4,0,0,5.4,0,12s5.4,12,12,12s12-5.4,12-12S18.6,0,12,0z M16.5,8.2l-3.7,3.7c-0.2,0.2-0.5,0.3-0.8,0.3
    s-0.6-0.1-0.8-0.3L7.5,8.2C7.3,8,7.2,7.7,7.2,7.4c0-0.3,0.1-0.6,0.3-0.8c0.4-0.4,1.1-0.4,1.6,0l3,3l3-3c0.4-0.4,1.1-0.4,1.6,0
    c0.2,0.2,0.3,0.5,0.3,0.8C16.8,7.7,16.7,8,16.5,8.2z M16.5,17.4c-0.2,0.2-0.5,0.3-0.8,0.3s-0.6-0.1-0.8-0.3l-3-3l-3,3
    c-0.2,0.2-0.5,0.3-0.8,0.3s-0.6-0.1-0.8-0.3c-0.2-0.2-0.3-0.5-0.3-0.8c0-0.3,0.1-0.6,0.3-0.8l3.7-3.7c0.4-0.4,1.1-0.4,1.6,0l3.7,3.7
    c0.2,0.2,0.3,0.5,0.3,0.8C16.8,16.9,16.7,17.2,16.5,17.4z"/>
</svg> 